<svg width="12" height="19" viewBox="0 0 12 19" fill="none" xmlns="http://www.w3.org/2000/svg">
<path d="M0.0678381 9.33694C0.0622805 9.26135 0.0581019 9.1751 0.0571682 9.0715C-0.0530956 8.81985 0.0309344 8.4486 0.0268884 8.20629C0.0236428 8.01155 0.125416 7.77457 0.17748 7.58294C0.226832 7.40154 0.33207 7.1619 0.431263 6.93025C0.501245 6.76708 0.607463 6.62881 0.723818 6.4683C0.93043 6.18286 1.08947 6.06681 1.2233 5.94543C1.38296 5.80093 1.54568 5.71468 1.67551 5.62398C1.78466 5.54751 1.90786 5.49326 2.01555 5.41279C2.13902 5.32075 2.28654 5.30253 2.44594 5.23717C2.60075 5.17359 2.77735 5.13179 2.95817 5.05132C3.14202 4.96951 3.32862 4.86058 3.45778 4.78499C3.58819 4.70897 3.76723 4.62983 3.92703 4.56402C4.09682 4.49422 4.28392 4.38885 4.47803 4.2728C4.64774 4.17188 4.86978 4.02693 4.96057 3.90644C5.05109 3.78595 5.14566 3.6957 5.24032 3.54498C5.33525 3.39381 5.43809 3.21419 5.53314 3.02745C5.6511 2.79625 5.80854 2.61085 5.88625 2.46501C5.96015 2.3263 6.10091 2.14889 6.25617 1.90791C6.43344 1.6327 6.55766 1.47575 6.72115 1.2699C6.82341 1.14096 6.93634 1.01335 7.06137 0.86263C7.22561 0.664778 7.41839 0.511388 7.6037 0.385562C7.72277 0.304643 7.84046 0.219722 7.95272 0.139247C8.05787 0.0636627 8.18508 0.0387623 8.31851 0.0134195C8.52747 -0.0265956 8.78748 0.0280937 8.95141 0.108568C9.07284 0.168146 9.18377 0.309089 9.30025 0.429578C9.45934 0.594974 9.51131 0.771036 9.6017 0.981782C9.69156 1.19119 9.7009 1.38371 9.73113 1.60958C9.75425 1.78253 9.74407 1.93637 9.75696 2.27027C9.78795 3.07102 9.7699 3.67435 9.78706 3.80952C9.81578 4.03582 9.8301 4.19633 9.86882 4.35728C9.91213 4.53691 10.0021 4.68896 10.0926 4.80945C10.1829 4.93039 10.3033 5.03042 10.4282 5.11579C10.5497 5.19893 10.6562 5.32165 10.7727 5.42213C10.9702 5.59286 11.1554 5.9032 11.2546 6.06948L11.255 6.06992C11.3324 6.19975 11.4229 6.3358 11.5305 6.60702C11.6138 6.81687 11.6383 6.96893 11.7157 7.30506C11.7609 7.50113 11.7933 7.66208 11.8493 7.88305C11.9042 8.09958 11.9395 8.28454 11.9613 8.50595C11.9748 8.64201 11.9913 8.77094 11.9997 9.33694H0.0678381Z" fill="black"/>
<path d="M0.0680817 9C0.062524 9.07558 0.0583899 9.16184 0.0574118 9.26543C-0.052852 9.51708 0.0311797 9.88833 0.0271337 10.1306C0.023888 10.3254 0.125704 10.5624 0.177724 10.754C0.227075 10.9354 0.33236 11.175 0.431553 11.4067C0.501535 11.5699 0.607708 11.7081 0.724108 11.8686C0.930675 12.1541 1.08976 12.2701 1.22354 12.3915C1.38324 12.536 1.54593 12.6223 1.67576 12.713C1.78491 12.7894 1.90811 12.8437 2.01584 12.9241C2.13926 13.0162 2.28683 13.0344 2.44618 13.0998C2.60099 13.1633 2.77764 13.2051 2.95846 13.2856C3.14226 13.3674 3.32887 13.4764 3.45803 13.5519C3.58843 13.628 3.76752 13.7071 3.92727 13.7729C4.09707 13.8427 4.28416 13.9481 4.47828 14.0641C4.64799 14.1651 4.87003 14.31 4.96082 14.4305C5.05134 14.551 5.14591 14.6412 5.24061 14.792C5.33549 14.9431 5.43833 15.1228 5.53339 15.3095C5.65135 15.5407 5.80878 15.7261 5.88654 15.8719C5.96044 16.0106 6.1012 16.188 6.25646 16.429C6.43368 16.7042 6.55791 16.8612 6.72144 17.067C6.82365 17.196 6.93663 17.3236 7.06165 17.4743C7.22585 17.6722 7.41863 17.8255 7.60399 17.9514C7.72306 18.0323 7.84075 18.1172 7.95297 18.1977C8.05816 18.2733 8.18532 18.2982 8.31875 18.3235C8.52776 18.3635 8.78773 18.3088 8.95165 18.2284C9.07308 18.1688 9.18401 18.0278 9.3005 17.9074C9.45962 17.742 9.51155 17.5659 9.60199 17.3552C9.6918 17.1457 9.70118 16.9532 9.73141 16.7274C9.75449 16.5544 9.74431 16.4006 9.75725 16.0667C9.78819 15.2659 9.77014 14.6626 9.7873 14.5274C9.81602 14.3011 9.83034 14.1406 9.86907 13.9797C9.91237 13.8 10.0024 13.648 10.0928 13.5275C10.1832 13.4065 10.3036 13.3065 10.4285 13.2211C10.5499 13.138 10.6564 13.0153 10.773 12.9148C10.9705 12.7441 11.1556 12.4337 11.2549 12.2675L11.2552 12.267C11.3326 12.1372 11.4232 12.0011 11.5308 11.7299C11.6141 11.5201 11.6386 11.368 11.7159 11.0319C11.7611 10.8358 11.7936 10.6749 11.8495 10.4539C11.9044 10.2374 11.9398 10.0524 11.9616 9.83098C11.9751 9.69493 11.9915 9.56599 12 9H0.0680817Z" fill="black"/>
</svg>
