<svg width="31" height="33" viewBox="0 0 31 33" fill="none" xmlns="http://www.w3.org/2000/svg">
<path d="M16.2398 32.4424C23.9632 32.4424 30.2242 26.1448 30.2242 18.3763C30.2242 10.6077 23.9632 4.31006 16.2398 4.31006C8.51647 4.31006 2.25537 10.6077 2.25537 18.3763C2.25537 26.1448 8.51647 32.4424 16.2398 32.4424Z" fill="#DDDDDD"/>
<path d="M16.2398 30.174C22.7175 30.174 27.9686 24.8921 27.9686 18.3765C27.9686 11.861 22.7175 6.5791 16.2398 6.5791C9.76214 6.5791 4.51099 11.861 4.51099 18.3765C4.51099 24.8921 9.76214 30.174 16.2398 30.174Z" fill="black"/>
<path d="M16.2398 28.3589C21.7209 28.3589 26.1642 23.8897 26.1642 18.3765C26.1642 12.8634 21.7209 8.39404 16.2398 8.39404C10.7588 8.39404 6.31543 12.8634 6.31543 18.3765C6.31543 23.8897 10.7588 28.3589 16.2398 28.3589Z" fill="#DDDDDD"/>
<path d="M20.2998 6.5791H11.7288V16.5616H20.2998V6.5791Z" fill="#D9D9D9"/>
<path d="M2.71341 14.974L16.8808 21.189L26.4092 1.58843L27.986 0L17.8269 26.3213L0 18.4047L2.71341 14.974Z" fill="black"/>
</svg>
