<svg width="19" height="25" viewBox="0 0 19 25" fill="none" xmlns="http://www.w3.org/2000/svg">
<path d="M3.60316 0L9.00505 0.735167L14.4079 0V3.62626L9.00505 1.41893L3.60132 3.62626L3.60316 0Z" fill="#FEDD20"/>
<path d="M3.60316 24.7806L9.00505 24.0445L14.4079 24.7806V21.1543L9.00505 23.3616L3.60132 21.1543L3.60316 24.7806Z" fill="#FEDD20"/>
<path d="M2.42436 5.81162L9.00501 3.02148L15.5848 5.81162L18.01 12.0876L15.5848 18.0157L9.00501 21.1537L2.42436 18.0157L0 12.0876L2.42436 5.81162Z" fill="#FEDD20"/>
<path d="M9.14166 17.5272C12.361 17.5272 14.9704 15.0923 14.9704 12.0874C14.9704 9.08338 12.361 6.64844 9.14166 6.64844C5.9214 6.64844 3.31201 9.08338 3.31201 12.0874C3.31201 15.0923 5.9214 17.5272 9.14166 17.5272Z" fill="#030303"/>
<path d="M6.11811 9.46045C6.55957 9.46045 6.89752 9.80463 6.89844 10.2048C6.89844 10.605 6.55957 10.9491 6.11811 10.9491C5.67665 10.9491 5.3396 10.605 5.3396 10.2048C5.3396 9.80463 5.67757 9.46137 6.11811 9.46045Z" fill="#FEDD20" stroke="#FEDD20"/>
<path d="M12.1639 9.46045C12.6054 9.46045 12.9434 9.80463 12.9434 10.2048C12.9434 10.605 12.6054 10.9491 12.1639 10.9491C11.7225 10.9491 11.3845 10.605 11.3845 10.2048C11.3845 9.80463 11.7225 9.46137 12.1639 9.46045Z" fill="#FEDD20" stroke="#FEDD20"/>
<path d="M2.40161 14.3269L3.58493 13.1797L6.13568 16.3571L4.49624 16.9748L2.40161 14.3269Z" fill="#030303"/>
<path d="M15.6088 14.3269L14.4245 13.1797L11.8738 16.3571L13.5132 16.9748L15.6088 14.3269Z" fill="#030303"/>
<path d="M9.14146 11.2651C9.11032 11.2623 9.07459 11.2614 9.03246 11.2605C8.92896 11.2164 8.77693 11.2504 8.67801 11.2486C8.59833 11.2476 8.50126 11.288 8.42249 11.3082C8.3483 11.3284 8.25031 11.3697 8.15506 11.4092C8.0882 11.4367 8.03141 11.4789 7.96547 11.5257C7.84915 11.6074 7.80152 11.6708 7.75206 11.724C7.69253 11.7873 7.6568 11.8516 7.62016 11.903C7.58902 11.947 7.56613 11.9957 7.53315 12.0379C7.4956 12.0874 7.48827 12.1462 7.46171 12.2095C7.43515 12.271 7.41869 12.3408 7.38571 12.4124C7.35183 12.4858 7.30692 12.5592 7.27578 12.6106C7.24464 12.6629 7.2126 12.7336 7.18603 12.7969C7.15673 12.8648 7.11367 12.9392 7.06604 13.0163C7.02483 13.0833 6.96532 13.1714 6.91586 13.2072C6.86732 13.2439 6.82976 13.2806 6.7684 13.3182C6.70612 13.3559 6.63285 13.3972 6.55591 13.4348C6.46158 13.4816 6.38555 13.544 6.32602 13.5752C6.26924 13.6046 6.19596 13.6606 6.09705 13.7221C5.98439 13.7927 5.92028 13.8414 5.83602 13.9065C5.7829 13.9469 5.73068 13.9919 5.66932 14.0415C5.58781 14.1066 5.52553 14.1837 5.47333 14.2571C5.44036 14.3039 5.40554 14.3508 5.37257 14.3957C5.34143 14.437 5.33135 14.4875 5.32128 14.5407C5.30479 14.6234 5.32679 14.7271 5.35977 14.7922C5.38449 14.84 5.44218 14.884 5.49164 14.9308C5.55941 14.9941 5.63178 15.0143 5.71787 15.0501C5.80396 15.0859 5.88273 15.0896 5.97524 15.1015C6.04576 15.1107 6.10895 15.107 6.24633 15.1116C6.57422 15.1245 6.82153 15.1171 6.87648 15.1236C6.96899 15.1355 7.03492 15.141 7.10087 15.1566C7.17506 15.1731 7.23642 15.2089 7.28587 15.2447C7.33533 15.2814 7.37654 15.3291 7.41135 15.3787C7.44615 15.4264 7.49652 15.4686 7.53774 15.5155C7.60735 15.5935 7.73466 15.6669 7.80243 15.7064C7.85555 15.7376 7.91141 15.7734 8.02224 15.8156C8.10833 15.8495 8.17063 15.8587 8.30893 15.8899C8.38861 15.9074 8.45455 15.9202 8.54522 15.9422C8.63406 15.9643 8.71007 15.978 8.80075 15.9872C8.85661 15.9927 8.90974 15.9991 9.14146 16.0028V11.2651Z" fill="#FEDD20"/>
<path d="M9.14146 11.2651C9.11032 11.2623 9.07459 11.2614 9.03246 11.2605C8.92896 11.2164 8.77693 11.2504 8.67801 11.2486C8.59833 11.2476 8.50126 11.288 8.42249 11.3082C8.3483 11.3284 8.25031 11.3697 8.15506 11.4092C8.0882 11.4367 8.03141 11.4789 7.96547 11.5257C7.84915 11.6074 7.80152 11.6708 7.75206 11.724C7.69253 11.7873 7.6568 11.8516 7.62016 11.903C7.58902 11.947 7.56613 11.9957 7.53315 12.0379C7.4956 12.0874 7.48827 12.1462 7.46171 12.2095C7.43515 12.271 7.41869 12.3408 7.38571 12.4124C7.35183 12.4858 7.30692 12.5592 7.27578 12.6106C7.24464 12.6629 7.2126 12.7336 7.18603 12.7969C7.15673 12.8648 7.11367 12.9392 7.06604 13.0163C7.02483 13.0833 6.96532 13.1714 6.91586 13.2072C6.86732 13.2439 6.82976 13.2806 6.7684 13.3182C6.70612 13.3559 6.63285 13.3972 6.55591 13.4348C6.46158 13.4816 6.38555 13.544 6.32602 13.5752C6.26924 13.6046 6.19596 13.6606 6.09705 13.7221C5.98439 13.7927 5.92028 13.8414 5.83602 13.9065C5.7829 13.9469 5.73068 13.9919 5.66932 14.0415C5.58781 14.1066 5.52553 14.1837 5.47333 14.2571C5.44036 14.3039 5.40554 14.3508 5.37257 14.3957C5.34143 14.437 5.33135 14.4875 5.32128 14.5407C5.30479 14.6234 5.32679 14.7271 5.35977 14.7922C5.38449 14.84 5.44218 14.884 5.49164 14.9308C5.55941 14.9941 5.63178 15.0143 5.71787 15.0501C5.80396 15.0859 5.88273 15.0896 5.97524 15.1015C6.04576 15.1107 6.10895 15.107 6.24633 15.1116C6.57422 15.1245 6.82153 15.1171 6.87648 15.1236C6.96899 15.1355 7.03492 15.141 7.10087 15.1566C7.17506 15.1731 7.23642 15.2089 7.28587 15.2447C7.33533 15.2814 7.37654 15.3291 7.41135 15.3787C7.44615 15.4264 7.49652 15.4686 7.53774 15.5155C7.60735 15.5935 7.73466 15.6669 7.80243 15.7064C7.85555 15.7376 7.91141 15.7734 8.02224 15.8156C8.10833 15.8495 8.17063 15.8587 8.30893 15.8899C8.38861 15.9074 8.45455 15.9202 8.54522 15.9422C8.63406 15.9643 8.71007 15.978 8.80075 15.9872C8.85661 15.9927 8.90974 15.9991 9.14146 16.0028V11.2651Z" fill="#FEDD20"/>
<path d="M9.1416 11.2651C9.17183 11.2623 9.20753 11.2614 9.24966 11.2605C9.35315 11.2164 9.50521 11.2504 9.60413 11.2486C9.68381 11.2476 9.78089 11.288 9.85965 11.3082C9.93476 11.3284 10.0328 11.3697 10.1271 11.4092C10.1939 11.4367 10.2507 11.4789 10.3167 11.5257C10.4339 11.6074 10.4815 11.6708 10.531 11.724C10.5896 11.7873 10.6253 11.8516 10.6629 11.903C10.694 11.947 10.716 11.9957 10.749 12.0379C10.7865 12.0874 10.7938 12.1462 10.8213 12.2095C10.847 12.271 10.8644 12.3408 10.8974 12.4124C10.9303 12.4858 10.9752 12.5592 11.0063 12.6106C11.0375 12.6629 11.0695 12.7336 11.097 12.7969C11.1254 12.8648 11.1684 12.9392 11.2161 13.0163C11.2573 13.0833 11.3168 13.1714 11.3663 13.2072C11.4157 13.2439 11.4524 13.2806 11.5147 13.3182C11.576 13.3559 11.6502 13.3972 11.7262 13.4348C11.8215 13.4816 11.8975 13.544 11.957 13.5752C12.0138 13.6046 12.0862 13.6606 12.1851 13.7221C12.2977 13.7927 12.3619 13.8414 12.4461 13.9065C12.4992 13.9469 12.5514 13.9919 12.6137 14.0415C12.6943 14.1066 12.7575 14.1837 12.8088 14.2571C12.8418 14.3039 12.8766 14.3508 12.9095 14.3957C12.9407 14.437 12.9508 14.4875 12.9608 14.5407C12.9773 14.6234 12.9553 14.7271 12.9224 14.7922C12.8976 14.84 12.8399 14.884 12.7905 14.9308C12.7227 14.9941 12.6513 15.0143 12.5643 15.0501C12.4791 15.0859 12.4003 15.0896 12.3069 15.1015C12.2364 15.1107 12.1732 15.107 12.0367 15.1116C11.7088 15.1245 11.4615 15.1171 11.4057 15.1236C11.3132 15.1355 11.2472 15.141 11.1813 15.1566C11.108 15.1731 11.0457 15.2089 10.9963 15.2447C10.9468 15.2814 10.9056 15.3291 10.8708 15.3787C10.8369 15.4264 10.7865 15.4686 10.7453 15.5155C10.6748 15.5935 10.5484 15.6669 10.4797 15.7064C10.4266 15.7376 10.3707 15.7734 10.2599 15.8156C10.1738 15.8495 10.1115 15.8587 9.97414 15.8899C9.89354 15.9074 9.8276 15.9202 9.73692 15.9422C9.64808 15.9643 9.57207 15.978 9.4814 15.9872C9.42553 15.9927 9.37332 15.9991 9.1416 16.0028V11.2651Z" fill="#FEDD20"/>
</svg>
