<svg width="40" height="35" viewBox="0 0 40 35" fill="none" xmlns="http://www.w3.org/2000/svg">
<path d="M9.09768 0H29.3725L39.25 17.1254L29.3725 34.2507H9.09768L0 17.1254L9.09768 0Z" fill="#FEDD20"/>
<g clip-path="url(#clip0_342_12)">
<path d="M6 10.0525C6 9.50574 6.31501 9.00036 6.82669 8.72622L18.5576 2.44143C19.0678 2.16809 19.6967 2.16588 20.2091 2.43565L32.1625 8.72819C32.6803 9.00077 33 9.50933 33 10.0603V22.9432C33 23.4359 32.7437 23.8987 32.3115 24.1869L21.4802 31.4035C20.9379 31.7648 20.2139 31.7896 19.644 31.4664L6.79099 24.1766C6.29954 23.8978 6 23.403 6 22.87V10.0525Z" fill="black"/>
<path d="M7.18433 10.6451C7.18433 10.0923 7.50627 9.58232 8.02687 9.31046L18.7012 3.73603C19.2034 3.47379 19.8168 3.47167 20.3211 3.73043L31.1994 9.31256C31.7261 9.5828 32.0527 10.0959 32.0527 10.6528V22.025C32.0527 22.5243 31.7896 22.9923 31.3479 23.2793L21.4981 29.6765C20.9626 30.0242 20.256 30.0483 19.6943 29.7378L7.99138 23.2677C7.4908 22.9909 7.18433 22.4914 7.18433 21.9521V10.6451Z" fill="#FEDD20"/>
<path d="M19.5 17.8571C19.5 17.4955 19.6931 17.1572 20.016 16.9532L30.9108 10.0683C31.6967 9.57164 32.7632 10.092 32.7632 10.9722V23.5831C32.7632 23.9599 32.5538 24.31 32.2087 24.5104L21.3141 30.8369C20.5254 31.295 19.5 30.7708 19.5 29.9097V17.8571Z" fill="black"/>
<path d="M26.842 24.2263L29.4473 22.803V23.5694L26.842 24.9928V24.2263Z" fill="#FEDD20"/>
<path d="M22.1291 19.2994C22.2974 19.2136 22.3311 18.9263 22.366 18.314C22.366 18.314 23.0765 17.7666 23.0765 17.9855C23.0765 18.2045 23.0765 18.752 23.0765 18.752C23.5903 18.5187 23.9664 18.7054 24.0239 18.752C24.0561 19.164 23.787 19.7374 23.787 19.7374C22.5041 19.8941 22.2691 20.222 22.2476 21.0512C23.7911 21.215 23.9054 21.3796 24.0238 21.4891C24.3797 21.54 24.707 23.3241 23.787 24.2264C23.4267 24.5791 23.2824 24.6814 23.0765 24.7738C23.179 25.3096 23.1624 25.4706 23.0765 25.6497C22.8579 25.8474 22.6029 25.9418 22.2476 25.9782V25.2118C21.8315 25.3403 21.5977 25.3832 21.1818 25.2118C21.132 24.8645 21.1747 24.6534 21.4186 24.2264C23.1281 23.9139 23.7512 22.6532 22.7212 22.4745C21.6913 22.2958 21.9617 22.6058 21.3002 22.0366C21.1471 21.7644 21.1357 21.5343 21.1818 21.0512C21.2695 20.3581 21.4166 19.9721 22.1291 19.2994Z" fill="#FEDD20"/>
</g>
<defs>
<clipPath id="clip0_342_12">
<rect width="27" height="30" fill="white" transform="translate(6 2)"/>
</clipPath>
</defs>
</svg>
