<svg width="40" height="35" viewBox="0 0 40 35" fill="none" xmlns="http://www.w3.org/2000/svg">
<path d="M9.09768 0H29.3725L39.25 17.1254L29.3725 34.2507H9.09768L0 17.1254L9.09768 0Z" fill="#FEDD20"/>
<path d="M21.5273 10.8042C20.7678 10.8042 20.0864 10.9563 19.4832 11.2603C18.8801 11.5441 18.3663 11.9698 17.9418 12.5374C17.5173 13.0848 17.1934 13.7537 16.97 14.5443C16.7466 15.3348 16.6349 16.2369 16.6349 17.2505C16.6349 18.6086 16.8248 19.754 17.2046 20.6864C17.5844 21.6189 18.1652 22.3284 18.9471 22.8149C19.729 23.2811 20.7119 23.5143 21.8959 23.5143C22.9459 23.5143 23.9624 23.3825 24.9453 23.119C25.9506 22.8554 26.9559 22.5311 27.9612 22.146V27.1022C26.9112 27.5279 25.8277 27.832 24.7108 28.0144C23.6161 28.2172 22.4433 28.3185 21.1922 28.3185C18.6008 28.3185 16.4785 27.8523 14.8254 26.9198C13.1723 25.9873 11.9547 24.69 11.1728 23.0277C10.3909 21.3452 10 19.4093 10 17.2201C10 15.5781 10.2457 14.078 10.7372 12.7199C11.251 11.3414 11.9994 10.1556 12.9824 9.1623C13.9653 8.14874 15.1717 7.3683 16.6014 6.82098C18.0535 6.27366 19.7178 6 21.5944 6C22.756 6 23.9735 6.12163 25.2469 6.36488C26.5203 6.60813 27.7713 6.99329 29 7.52034L27.0229 12.1421C26.1517 11.757 25.2693 11.4428 24.3757 11.1995C23.4821 10.936 22.5326 10.8042 21.5273 10.8042Z" fill="black"/>
</svg>
