<svg width="40" height="35" viewBox="0 0 40 35" fill="none" xmlns="http://www.w3.org/2000/svg">
<path d="M9.09768 0H29.3725L39.25 17.1254L29.3725 34.2507H9.09768L0 17.1254L9.09768 0Z" fill="#FEDD20"/>
<g clip-path="url(#clip0_342_17)">
<path d="M11.2553 11.2888C12.9827 11.2888 14.383 9.88098 14.383 8.14438C14.383 6.40779 12.9827 5 11.2553 5C9.52799 5 8.12769 6.40779 8.12769 8.14438C8.12769 9.88098 9.52799 11.2888 11.2553 11.2888Z" fill="#050505"/>
<path d="M11.2552 10.7755C12.7005 10.7755 13.8722 9.59751 13.8722 8.14444C13.8722 6.69137 12.7005 5.51343 11.2552 5.51343C9.80986 5.51343 8.63818 6.69137 8.63818 8.14444C8.63818 9.59751 9.80986 10.7755 11.2552 10.7755Z" fill="#FEDD20"/>
<path d="M21.2129 8.97861C22.3057 8.97861 23.1916 8.08797 23.1916 6.98931C23.1916 5.89064 22.3057 5 21.2129 5C20.12 5 19.2341 5.89064 19.2341 6.98931C19.2341 8.08797 20.12 8.97861 21.2129 8.97861Z" fill="black"/>
<path d="M21.2127 8.4653C22.0235 8.4653 22.6808 7.8045 22.6808 6.98936C22.6808 6.17423 22.0235 5.51343 21.2127 5.51343C20.4019 5.51343 19.7446 6.17423 19.7446 6.98936C19.7446 7.8045 20.4019 8.4653 21.2127 8.4653Z" fill="#FEDD20"/>
<path d="M17.1276 13.8557C18.2909 13.8557 19.234 12.9076 19.234 11.738C19.234 10.5685 18.2909 9.62036 17.1276 9.62036C15.9643 9.62036 15.0212 10.5685 15.0212 11.738C15.0212 12.9076 15.9643 13.8557 17.1276 13.8557Z" fill="black"/>
<path d="M17.1278 13.0856C17.8681 13.0856 18.4682 12.4822 18.4682 11.738C18.4682 10.9937 17.8681 10.3904 17.1278 10.3904C16.3875 10.3904 15.7874 10.9937 15.7874 11.738C15.7874 12.4822 16.3875 13.0856 17.1278 13.0856Z" fill="#FEDD20"/>
<path d="M26.1915 19.631C27.7073 19.631 28.9361 18.3956 28.9361 16.8717C28.9361 15.3477 27.7073 14.1123 26.1915 14.1123C24.6756 14.1123 23.4468 15.3477 23.4468 16.8717C23.4468 18.3956 24.6756 19.631 26.1915 19.631Z" fill="black"/>
<path d="M30.4682 15.6525C31.3142 15.6525 32.0001 14.9629 32.0001 14.1124C32.0001 13.2618 31.3142 12.5723 30.4682 12.5723C29.6221 12.5723 28.9363 13.2618 28.9363 14.1124C28.9363 14.9629 29.6221 15.6525 30.4682 15.6525Z" fill="black"/>
<path d="M20.383 28.9999C21.7931 28.9999 22.9362 27.8507 22.9362 26.4331C22.9362 25.0154 21.7931 23.8662 20.383 23.8662C18.9729 23.8662 17.8298 25.0154 17.8298 26.4331C17.8298 27.8507 18.9729 28.9999 20.383 28.9999Z" fill="black"/>
<path d="M10.5531 22.1978C11.5402 22.1978 12.3403 21.3934 12.3403 20.401C12.3403 19.4087 11.5402 18.6042 10.5531 18.6042C9.56604 18.6042 8.76587 19.4087 8.76587 20.401C8.76587 21.3934 9.56604 22.1978 10.5531 22.1978Z" fill="black"/>
<path d="M9.21279 16.0375C9.81208 16.0375 10.2979 15.5491 10.2979 14.9466C10.2979 14.3441 9.81208 13.8557 9.21279 13.8557C8.6135 13.8557 8.12769 14.3441 8.12769 14.9466C8.12769 15.5491 8.6135 16.0375 9.21279 16.0375Z" fill="black"/>
<path d="M28.2978 27.075C30.3425 27.075 32 25.4086 32 23.353C32 21.2975 30.3425 19.6311 28.2978 19.6311C26.2532 19.6311 24.5957 21.2975 24.5957 23.353C24.5957 25.4086 26.2532 27.075 28.2978 27.075Z" fill="black"/>
<path d="M28.2979 11.8022C30.131 11.8022 31.6171 10.3082 31.6171 8.46532C31.6171 6.6224 30.131 5.12842 28.2979 5.12842C26.4648 5.12842 24.9788 6.6224 24.9788 8.46532C24.9788 10.3082 26.4648 11.8022 28.2979 11.8022Z" fill="black"/>
<path d="M28.2978 11.1604C29.7784 11.1604 30.9786 9.95372 30.9786 8.46521C30.9786 6.9767 29.7784 5.77002 28.2978 5.77002C26.8172 5.77002 25.6169 6.9767 25.6169 8.46521C25.6169 9.95372 26.8172 11.1604 28.2978 11.1604Z" fill="#FEDD20"/>
<path d="M10.4894 29C11.8642 29 12.9787 27.8795 12.9787 26.4973C12.9787 25.1151 11.8642 23.9946 10.4894 23.9946C9.11453 23.9946 8 25.1151 8 26.4973C8 27.8795 9.11453 29 10.4894 29Z" fill="black"/>
<path d="M17.7661 23.8664C20.1985 23.8664 22.1703 21.884 22.1703 19.4385C22.1703 16.9931 20.1985 15.0107 17.7661 15.0107C15.3337 15.0107 13.3618 16.9931 13.3618 19.4385C13.3618 21.884 15.3337 23.8664 17.7661 23.8664Z" fill="black"/>
<path d="M17.7659 22.4544C19.4227 22.4544 20.7659 21.1041 20.7659 19.4384C20.7659 17.7727 19.4227 16.4224 17.7659 16.4224C16.109 16.4224 14.7659 17.7727 14.7659 19.4384C14.7659 21.1041 16.109 22.4544 17.7659 22.4544Z" fill="#FEDD20"/>
<path d="M20.383 27.9733C21.229 27.9733 21.9149 27.2838 21.9149 26.4332C21.9149 25.5826 21.229 24.8931 20.383 24.8931C19.5369 24.8931 18.8511 25.5826 18.8511 26.4332C18.8511 27.2838 19.5369 27.9733 20.383 27.9733Z" fill="#FEDD20"/>
<path d="M28.2979 26.5614C30.0605 26.5614 31.4894 25.1249 31.4894 23.3528C31.4894 21.5808 30.0605 20.1443 28.2979 20.1443C26.5353 20.1443 25.1064 21.5808 25.1064 23.3528C25.1064 25.1249 26.5353 26.5614 28.2979 26.5614Z" fill="#FEDD20"/>
<path d="M26.1914 18.8609C27.2842 18.8609 28.1701 17.9703 28.1701 16.8716C28.1701 15.773 27.2842 14.8823 26.1914 14.8823C25.0986 14.8823 24.2126 15.773 24.2126 16.8716C24.2126 17.9703 25.0986 18.8609 26.1914 18.8609Z" fill="#FEDD20"/>
<path d="M30.5319 15.2673C31.1312 15.2673 31.617 14.7789 31.617 14.1764C31.617 13.5739 31.1312 13.0854 30.5319 13.0854C29.9326 13.0854 29.4468 13.5739 29.4468 14.1764C29.4468 14.7789 29.9326 15.2673 30.5319 15.2673Z" fill="#FEDD20"/>
<path d="M10.4894 27.845C11.1592 27.845 11.7021 27.2991 11.7021 26.6257C11.7021 25.9524 11.1592 25.4065 10.4894 25.4065C9.81959 25.4065 9.27661 25.9524 9.27661 26.6257C9.27661 27.2991 9.81959 27.845 10.4894 27.845Z" fill="#FEDD20"/>
<path d="M10.5532 21.9413C11.3992 21.9413 12.0851 21.2518 12.0851 20.4012C12.0851 19.5506 11.3992 18.8611 10.5532 18.8611C9.7071 18.8611 9.02124 19.5506 9.02124 20.4012C9.02124 21.2518 9.7071 21.9413 10.5532 21.9413Z" fill="#FEDD20"/>
<path d="M9.2127 15.2674C9.38896 15.2674 9.53185 15.1238 9.53185 14.9466C9.53185 14.7694 9.38896 14.6257 9.2127 14.6257C9.03644 14.6257 8.89355 14.7694 8.89355 14.9466C8.89355 15.1238 9.03644 15.2674 9.2127 15.2674Z" fill="#FEDD20"/>
<path d="M12.2014 11.0465C12.1374 10.9187 12.1897 10.763 12.3176 10.7004L12.7256 10.5006C12.8507 10.4393 13.0015 10.49 13.0648 10.6146L15.6988 15.7983C15.7511 15.9012 15.7286 16.0265 15.6438 16.1045L15.2678 16.4502C15.1429 16.565 14.9435 16.5281 14.8674 16.3761L12.2014 11.0465Z" fill="black"/>
<path d="M12.4641 25.8827C12.3551 25.9766 12.1907 25.9618 12.1001 25.85L11.92 25.628C11.8328 25.5206 11.8463 25.3628 11.9505 25.272L15.4643 22.2061C15.552 22.1296 15.6801 22.1222 15.7759 22.1883L16.0445 22.3732C16.183 22.4686 16.1938 22.6701 16.0663 22.7799L12.4641 25.8827Z" fill="black"/>
<path d="M25.018 21.9923C25.1676 22.0548 25.2221 22.2398 25.1307 22.3741L24.9918 22.5785C24.9241 22.6783 24.7961 22.7169 24.6848 22.6714L21.1227 21.2128C20.9962 21.1609 20.9327 21.0182 20.9785 20.8888L21.0687 20.6342C21.1179 20.4957 21.2724 20.4269 21.4073 20.4834L25.018 21.9923Z" fill="black"/>
<path d="M25.7483 10.2226C25.8537 10.1359 26.0081 10.1476 26.0994 10.2491L26.5613 10.7629C26.6607 10.8735 26.6458 11.0459 26.5287 11.1375L19.8748 16.3452C19.7895 16.4119 19.6717 16.4174 19.5806 16.359L19.1519 16.0839C19.0054 15.9899 18.9931 15.7795 19.1276 15.6688L25.7483 10.2226Z" fill="black"/>
</g>
<defs>
<clipPath id="clip0_342_17">
<rect width="24" height="24" fill="white" transform="translate(8 5)"/>
</clipPath>
</defs>
</svg>
