<svg width="17" height="18" viewBox="0 0 17 18" fill="none" xmlns="http://www.w3.org/2000/svg">
<path d="M9.16922 0.0393066C9.16922 0.0393066 11.983 0.314071 13.5357 1.78591C16.2996 4.40582 17.0001 6.58907 17.0001 6.58907C17.0001 6.58907 17.0001 15.3221 17.0001 16.1954C17.0001 19.129 11.0118 14.4488 11.0118 11.8289C11.0118 9.20898 11.0118 3.09586 11.0118 3.09586C11.0118 3.09586 10.839 2.56361 10.4792 2.22256C10.1194 1.88152 9.16922 1.34926 9.16922 1.34926C9.16922 1.34926 8.73257 0.64648 8.73257 0.475958C8.73257 0.134912 9.16922 0.0393066 9.16922 0.0393066Z" fill="#E33E4A"/>
<rect x="8.73306" y="7.86169" width="2.61991" height="0.873302" fill="#E33E4A"/>
<path d="M8.73306 8.29834H9.60636C9.60636 8.29834 9.16971 15.2848 11.353 16.1581C12.3029 16.538 8.73306 16.1581 8.73306 16.1581V8.29834Z" fill="#E33E4A"/>
<path d="M7.83093 0C7.83093 0 5.01713 0.274764 3.46442 1.7466C0.700562 4.36651 0 6.54976 0 6.54976C0 6.54976 0 15.2828 0 16.1561C0 19.0897 5.98836 14.4095 5.98836 11.7896C5.98836 9.16967 5.98836 3.05656 5.98836 3.05656C5.98836 3.05656 6.16119 2.5243 6.52097 2.18325C6.88076 1.84221 7.83093 1.30995 7.83093 1.30995C7.83093 1.30995 8.26758 0.607174 8.26758 0.436651C8.26758 0.0956053 7.83093 0 7.83093 0Z" fill="#BE1B46"/>
<rect width="2.61991" height="0.873302" transform="matrix(-1 0 0 1 8.26735 7.82239)" fill="#C21443"/>
<path d="M8.26735 8.25903H7.39405C7.39405 8.25903 7.8307 15.2454 5.64744 16.1188C4.69748 16.4987 8.26735 16.1188 8.26735 16.1188V8.25903Z" fill="#C21443"/>
</svg>
