<svg width="73" height="62" viewBox="0 0 73 62" fill="none" xmlns="http://www.w3.org/2000/svg">
<ellipse cx="37" cy="30.8148" rx="32" ry="30.8148" fill="#E7E7E3"/>
<circle cx="20.4074" cy="20.1481" r="5.92593" fill="#0B0B0C"/>
<circle cx="53.5924" cy="20.1481" r="5.92593" fill="#0B0B0C"/>
<path d="M0 43.5L6.5 37L20.5 55L11.5 58.5L0 43.5Z" fill="#E7E7E3"/>
<path d="M72.5 43.5L66 37L52 55L61 58.5L72.5 43.5Z" fill="#E7E7E3"/>
<path d="M37 26.1525C36.8301 26.14 36.636 26.1306 36.4028 26.1285C35.8371 25.8805 35.0025 26.0695 34.4568 26.0604C34.0193 26.0531 33.4862 26.282 33.0551 26.3991C32.6466 26.5101 32.1076 26.7468 31.5871 26.9699C31.2199 27.1273 30.9093 27.3662 30.5477 27.6279C29.9057 28.0926 29.6445 28.4503 29.372 28.7513C29.0469 29.1104 28.8528 29.4764 28.6488 29.7684C28.4773 30.0139 28.3553 30.291 28.1744 30.5332C27.967 30.8109 27.9256 31.1427 27.7789 31.5012C27.6364 31.8494 27.542 32.2466 27.361 32.6533C27.1771 33.0668 26.932 33.4865 26.7622 33.777C26.5908 34.0703 26.4128 34.473 26.265 34.8324C26.108 35.2143 25.8706 35.6351 25.6103 36.0717C25.3828 36.4534 25.0572 36.9528 24.7858 37.157C24.5152 37.3606 24.3117 37.5733 23.9728 37.7862C23.6331 37.9997 23.2286 38.231 22.8093 38.4448C22.2892 38.7101 21.8716 39.0642 21.5439 39.239C21.2325 39.4052 20.8332 39.7218 20.291 40.071C19.672 40.4697 19.3191 40.7491 18.8558 41.1168C18.5661 41.3468 18.2793 41.6008 17.9404 41.882C17.4953 42.2514 17.1501 42.685 16.8668 43.1018C16.6848 43.3696 16.494 43.6343 16.3131 43.8868C16.1435 44.1233 16.0874 44.4094 16.0301 44.7095C15.9404 45.1795 16.063 45.7643 16.2439 46.133C16.378 46.4061 16.6947 46.6556 16.9665 46.9176C17.3376 47.2754 17.7344 47.3923 18.2082 47.5956C18.6789 47.7977 19.1117 47.8187 19.62 47.8867C20.0086 47.9387 20.3554 47.9158 21.1064 47.9448C22.9068 48.0145 24.2635 47.9739 24.5679 48.0125C25.0765 48.0771 25.4381 48.1093 25.8001 48.1964C26.2044 48.2938 26.5457 48.4962 26.8171 48.6996C27.0886 48.9029 27.3143 49.1736 27.5064 49.4546C27.6933 49.7278 27.969 49.9673 28.1954 50.2293C28.5792 50.6736 29.2769 51.09 29.651 51.3133L29.6523 51.3141C29.9439 51.4881 30.2504 51.6917 30.8598 51.9337C31.3318 52.1212 31.6738 52.1763 32.4295 52.3503C32.8708 52.4519 33.2327 52.5249 33.7295 52.6507C34.2172 52.7742 34.633 52.8537 35.1305 52.9028C35.4375 52.9331 35.727 52.9701 37 52.9891V26.1525Z" fill="black"/>
<path d="M37 26.1525C36.8301 26.14 36.636 26.1306 36.4028 26.1285C35.8371 25.8805 35.0025 26.0695 34.4568 26.0604C34.0193 26.0531 33.4862 26.282 33.0551 26.3991C32.6466 26.5101 32.1076 26.7468 31.5871 26.9699C31.2199 27.1273 30.9093 27.3662 30.5477 27.6279C29.9057 28.0926 29.6445 28.4503 29.372 28.7513C29.0469 29.1104 28.8528 29.4764 28.6488 29.7684C28.4773 30.0139 28.3553 30.291 28.1744 30.5332C27.967 30.8109 27.9256 31.1427 27.7789 31.5012C27.6364 31.8494 27.542 32.2466 27.361 32.6533C27.1771 33.0668 26.932 33.4865 26.7622 33.777C26.5908 34.0703 26.4128 34.473 26.265 34.8324C26.108 35.2143 25.8706 35.6351 25.6103 36.0717C25.3828 36.4534 25.0572 36.9528 24.7858 37.157C24.5152 37.3606 24.3117 37.5733 23.9728 37.7862C23.6331 37.9997 23.2286 38.231 22.8093 38.4448C22.2892 38.7101 21.8716 39.0642 21.5439 39.239C21.2325 39.4052 20.8332 39.7218 20.291 40.071C19.672 40.4697 19.3191 40.7491 18.8558 41.1168C18.5661 41.3468 18.2793 41.6008 17.9404 41.882C17.4953 42.2514 17.1501 42.685 16.8668 43.1018C16.6848 43.3696 16.494 43.6343 16.3131 43.8868C16.1435 44.1233 16.0874 44.4094 16.0301 44.7095C15.9404 45.1795 16.063 45.7643 16.2439 46.133C16.378 46.4061 16.6947 46.6556 16.9665 46.9176C17.3376 47.2754 17.7344 47.3923 18.2082 47.5956C18.6789 47.7977 19.1117 47.8187 19.62 47.8867C20.0086 47.9387 20.3554 47.9158 21.1064 47.9448C22.9068 48.0145 24.2635 47.9739 24.5679 48.0125C25.0765 48.0771 25.4381 48.1093 25.8001 48.1964C26.2044 48.2938 26.5457 48.4962 26.8171 48.6996C27.0886 48.9029 27.3143 49.1736 27.5064 49.4546C27.6933 49.7278 27.969 49.9673 28.1954 50.2293C28.5792 50.6736 29.2769 51.09 29.651 51.3133L29.6523 51.3141C29.9439 51.4881 30.2504 51.6917 30.8598 51.9337C31.3318 52.1212 31.6738 52.1763 32.4295 52.3503C32.8708 52.4519 33.2327 52.5249 33.7295 52.6507C34.2172 52.7742 34.633 52.8537 35.1305 52.9028C35.4375 52.9331 35.727 52.9701 37 52.9891V26.1525Z" fill="black"/>
<path d="M37 26.1532C37.1699 26.1407 37.364 26.1314 37.5972 26.1292C38.1629 25.8812 38.9975 26.0702 39.5432 26.0611C39.9807 26.0538 40.5138 26.2828 40.9449 26.3998C41.3534 26.5108 41.8924 26.7476 42.4129 26.9707C42.7801 27.1281 43.0907 27.3669 43.4523 27.6287C44.0943 28.0933 44.3555 28.4511 44.628 28.752C44.9531 29.1112 45.1472 29.4771 45.3512 29.7691C45.5227 30.0146 45.6447 30.2917 45.8256 30.534C46.033 30.8116 46.0744 31.1435 46.2211 31.5019C46.3636 31.8501 46.458 32.2474 46.639 32.6541C46.8229 33.0675 47.068 33.4872 47.2378 33.7777C47.4092 34.071 47.5872 34.4738 47.735 34.8331C47.892 35.215 48.1294 35.6358 48.3897 36.0724C48.6172 36.4541 48.9428 36.9535 49.2142 37.1577C49.4848 37.3613 49.6883 37.574 50.0272 37.787C50.3669 38.0004 50.7714 38.2317 51.1907 38.4455C51.7108 38.7108 52.1284 39.0649 52.4561 39.2398C52.7675 39.406 53.1668 39.7226 53.709 40.0718C54.328 40.4704 54.6809 40.7498 55.1442 41.1176C55.4339 41.3475 55.7207 41.6016 56.0596 41.8828C56.5047 42.2521 56.8499 42.6857 57.1332 43.1026C57.3152 43.3704 57.506 43.6351 57.6869 43.8875C57.8565 44.1241 57.9126 44.4101 57.9699 44.7102C58.0596 45.1803 57.937 45.765 57.7561 46.1337C57.622 46.4068 57.3053 46.6563 57.0335 46.9183C56.6624 47.2762 56.2656 47.393 55.7918 47.5964C55.3211 47.7984 54.8883 47.8195 54.38 47.8875C53.9914 47.9394 53.6446 47.9165 52.8936 47.9456C51.0932 48.0152 49.7365 47.9746 49.4321 48.0132C48.9235 48.0778 48.5619 48.11 48.1999 48.1971C47.7956 48.2945 47.4543 48.4969 47.1829 48.7003C46.9114 48.9036 46.6857 49.1744 46.4936 49.4553C46.3067 49.7285 46.031 49.968 45.8046 50.2301C45.4208 50.6743 44.7231 51.0907 44.349 51.314L44.3477 51.3148C44.0561 51.4888 43.7496 51.6925 43.1402 51.9345C42.6682 52.1219 42.3262 52.177 41.5705 52.351C41.1292 52.4526 40.7673 52.5256 40.2705 52.6514C39.7828 52.7749 39.367 52.8545 38.8695 52.9036C38.5625 52.9339 38.273 52.9708 37 52.9898V26.1532Z" fill="black"/>
<path d="M37 26.1532C37.1699 26.1407 37.364 26.1314 37.5972 26.1292C38.1629 25.8812 38.9975 26.0702 39.5432 26.0611C39.9807 26.0538 40.5138 26.2828 40.9449 26.3998C41.3534 26.5108 41.8924 26.7476 42.4129 26.9707C42.7801 27.1281 43.0907 27.3669 43.4523 27.6287C44.0943 28.0933 44.3555 28.4511 44.628 28.752C44.9531 29.1112 45.1472 29.4771 45.3512 29.7691C45.5227 30.0146 45.6447 30.2917 45.8256 30.534C46.033 30.8116 46.0744 31.1435 46.2211 31.5019C46.3636 31.8501 46.458 32.2474 46.639 32.6541C46.8229 33.0675 47.068 33.4872 47.2378 33.7777C47.4092 34.071 47.5872 34.4738 47.735 34.8331C47.892 35.215 48.1294 35.6358 48.3897 36.0724C48.6172 36.4541 48.9428 36.9535 49.2142 37.1577C49.4848 37.3613 49.6883 37.574 50.0272 37.787C50.3669 38.0004 50.7714 38.2317 51.1907 38.4455C51.7108 38.7108 52.1284 39.0649 52.4561 39.2398C52.7675 39.406 53.1668 39.7226 53.709 40.0718C54.328 40.4704 54.6809 40.7498 55.1442 41.1176C55.4339 41.3475 55.7207 41.6016 56.0596 41.8828C56.5047 42.2521 56.8499 42.6857 57.1332 43.1026C57.3152 43.3704 57.506 43.6351 57.6869 43.8875C57.8565 44.1241 57.9126 44.4101 57.9699 44.7102C58.0596 45.1803 57.937 45.765 57.7561 46.1337C57.622 46.4068 57.3053 46.6563 57.0335 46.9183C56.6624 47.2762 56.2656 47.393 55.7918 47.5964C55.3211 47.7984 54.8883 47.8195 54.38 47.8875C53.9914 47.9394 53.6446 47.9165 52.8936 47.9456C51.0932 48.0152 49.7365 47.9746 49.4321 48.0132C48.9235 48.0778 48.5619 48.11 48.1999 48.1971C47.7956 48.2945 47.4543 48.4969 47.1829 48.7003C46.9114 48.9036 46.6857 49.1744 46.4936 49.4553C46.3067 49.7285 46.031 49.968 45.8046 50.2301C45.4208 50.6743 44.7231 51.0907 44.349 51.314L44.3477 51.3148C44.0561 51.4888 43.7496 51.6925 43.1402 51.9345C42.6682 52.1219 42.3262 52.177 41.5705 52.351C41.1292 52.4526 40.7673 52.5256 40.2705 52.6514C39.7828 52.7749 39.367 52.8545 38.8695 52.9036C38.5625 52.9339 38.273 52.9708 37 52.9898V26.1532Z" fill="black"/>
</svg>
