<svg width="61" height="54" viewBox="0 0 61 54" fill="none" xmlns="http://www.w3.org/2000/svg">
<path d="M2.04541 17.707C7.45425 25.9431 12.2968 32.12 16.8638 36.2275C21.431 40.3353 25.7322 42.3818 30.0552 42.3379C30.1039 42.3375 30.1431 42.377 30.1431 42.4238C30.143 42.4709 30.1043 42.5077 30.0581 42.5068C17.67 42.2152 5.45208 33.5569 1.97705 17.7773C1.97444 17.7655 1.97074 17.7537 1.96631 17.7422C1.96046 17.7271 1.96202 17.718 1.96436 17.7129C1.96756 17.7061 1.97519 17.6981 1.98682 17.6924C1.99851 17.6867 2.0109 17.6855 2.02002 17.6875C2.02743 17.6892 2.0366 17.6936 2.04541 17.707Z" fill="#D9D9D9"/>
<path d="M2.04541 17.707C7.45425 25.9431 12.2968 32.12 16.8638 36.2275C21.431 40.3353 25.7322 42.3818 30.0552 42.3379C30.1039 42.3375 30.1431 42.377 30.1431 42.4238C30.143 42.4709 30.1043 42.5077 30.0581 42.5068C17.67 42.2152 5.45208 33.5569 1.97705 17.7773C1.97444 17.7655 1.97074 17.7537 1.96631 17.7422C1.96046 17.7271 1.96202 17.718 1.96436 17.7129C1.96756 17.7061 1.97519 17.6981 1.98682 17.6924C1.99851 17.6867 2.0109 17.6855 2.02002 17.6875C2.02743 17.6892 2.0366 17.6936 2.04541 17.707Z" stroke="black" stroke-width="0.2"/>
<path d="M2.04541 17.707C7.45425 25.9431 12.2968 32.12 16.8638 36.2275C21.431 40.3353 25.7322 42.3818 30.0552 42.3379C30.1039 42.3375 30.1431 42.377 30.1431 42.4238C30.143 42.4709 30.1043 42.5077 30.0581 42.5068C17.67 42.2152 5.45208 33.5569 1.97705 17.7773C1.97444 17.7655 1.97074 17.7537 1.96631 17.7422C1.96046 17.7271 1.96202 17.718 1.96436 17.7129C1.96756 17.7061 1.97519 17.6981 1.98682 17.6924C1.99851 17.6867 2.0109 17.6855 2.02002 17.6875C2.02743 17.6892 2.0366 17.6936 2.04541 17.707Z" stroke="black" stroke-opacity="0.2" stroke-width="0.2"/>
<path d="M53.6331 13.3516C53.7394 13.4695 53.7867 13.635 53.7609 13.793C52.0921 24.019 48.9556 30.6738 43.3321 35.4954C37.7034 40.3214 29.5709 43.3216 17.8833 46.2085C17.6846 46.2575 17.4704 46.1944 17.3343 46.0439C17.0493 45.7286 17.2199 45.2145 17.6414 45.1226C28.7141 42.7134 36.3658 39.826 41.8085 35.039C47.2537 30.2498 50.4757 23.5703 52.7153 13.6048C52.8107 13.1803 53.3464 13.0345 53.6331 13.3516Z" fill="#D9D9D9" stroke="black" stroke-width="0.2"/>
<path d="M58.1179 17.707C52.7091 25.9431 47.8665 32.12 43.2996 36.2275C38.7323 40.3353 34.4312 42.3818 30.1082 42.3379C30.0594 42.3375 30.0203 42.377 30.0203 42.4238C30.0203 42.4709 30.0591 42.5077 30.1052 42.5068C42.4933 42.2152 54.7113 33.5569 58.1863 17.7773C58.1889 17.7655 58.1926 17.7537 58.197 17.7422C58.2029 17.7271 58.2013 17.718 58.199 17.7129C58.1958 17.7061 58.1881 17.6981 58.1765 17.6924C58.1648 17.6867 58.1524 17.6855 58.1433 17.6875C58.1359 17.6892 58.1267 17.6936 58.1179 17.707Z" fill="#D9D9D9"/>
<path d="M58.1179 17.707C52.7091 25.9431 47.8665 32.12 43.2996 36.2275C38.7323 40.3353 34.4312 42.3818 30.1082 42.3379C30.0594 42.3375 30.0203 42.377 30.0203 42.4238C30.0203 42.4709 30.0591 42.5077 30.1052 42.5068C42.4933 42.2152 54.7113 33.5569 58.1863 17.7773C58.1889 17.7655 58.1926 17.7537 58.197 17.7422C58.2029 17.7271 58.2013 17.718 58.199 17.7129C58.1958 17.7061 58.1881 17.6981 58.1765 17.6924C58.1648 17.6867 58.1524 17.6855 58.1433 17.6875C58.1359 17.6892 58.1267 17.6936 58.1179 17.707Z" stroke="black" stroke-width="0.2"/>
<path d="M58.1179 17.707C52.7091 25.9431 47.8665 32.12 43.2996 36.2275C38.7323 40.3353 34.4312 42.3818 30.1082 42.3379C30.0594 42.3375 30.0203 42.377 30.0203 42.4238C30.0203 42.4709 30.0591 42.5077 30.1052 42.5068C42.4933 42.2152 54.7113 33.5569 58.1863 17.7773C58.1889 17.7655 58.1926 17.7537 58.197 17.7422C58.2029 17.7271 58.2013 17.718 58.199 17.7129C58.1958 17.7061 58.1881 17.6981 58.1765 17.6924C58.1648 17.6867 58.1524 17.6855 58.1433 17.6875C58.1359 17.6892 58.1267 17.6936 58.1179 17.707Z" stroke="black" stroke-opacity="0.2" stroke-width="0.2"/>
<ellipse cx="30.243" cy="18.5581" rx="19.2454" ry="18.5581" fill="#D9D9D9"/>
<path d="M30.5064 31.8088C38.018 31.8088 44.1075 25.9191 44.1075 18.6537C44.1075 11.3883 38.018 5.49854 30.5064 5.49854C22.9947 5.49854 16.9053 11.3883 16.9053 18.6537C16.9053 25.9191 22.9947 31.8088 30.5064 31.8088Z" fill="black"/>
<path d="M23.5943 16.647C25.072 16.647 26.2699 15.5489 26.2699 14.1944C26.2699 12.8398 25.072 11.7417 23.5943 11.7417C22.1166 11.7417 20.9187 12.8398 20.9187 14.1944C20.9187 15.5489 22.1166 16.647 23.5943 16.647Z" fill="#FBFAF6"/>
<path d="M37.6414 16.647C38.9959 16.647 40.094 15.5489 40.094 14.1944C40.094 12.8398 38.9959 11.7417 37.6414 11.7417C36.2868 11.7417 35.1887 12.8398 35.1887 14.1944C35.1887 15.5489 36.2868 16.647 37.6414 16.647Z" fill="#FBFAF6"/>
<path d="M15.1216 23.8028L17.8081 21.1064L23.5944 28.5733L19.8746 30.0252L15.1216 23.8028Z" fill="black"/>
<path d="M45.4452 23.8028L42.7587 21.1064L36.9724 28.5733L40.6922 30.0252L45.4452 23.8028Z" fill="black"/>
<path d="M30.7291 16.71C30.6569 16.7048 30.5745 16.7009 30.4755 16.7C30.2351 16.5976 29.8805 16.6757 29.649 16.6719C29.463 16.6689 29.2367 16.7635 29.0536 16.8118C28.8803 16.8577 28.6514 16.9554 28.4302 17.0476C28.2743 17.1126 28.1422 17.2113 27.9889 17.3194C27.7162 17.5114 27.6054 17.6591 27.4894 17.7835C27.3514 17.9318 27.269 18.083 27.1824 18.2036C27.1093 18.305 27.0575 18.4195 26.9807 18.5195C26.8927 18.6342 26.8753 18.7713 26.8129 18.9194C26.7522 19.0632 26.7122 19.2273 26.6354 19.3953C26.5572 19.5661 26.4532 19.7394 26.381 19.8594C26.3084 19.9806 26.2328 20.1469 26.1699 20.2954C26.1032 20.4531 26.0026 20.627 25.8917 20.8073C25.7953 20.965 25.6569 21.1713 25.5418 21.2556C25.4267 21.3397 25.3405 21.4276 25.1965 21.5155C25.0521 21.6037 24.8805 21.6993 24.7022 21.7876C24.4813 21.8972 24.3042 22.0434 24.1649 22.1156C24.0324 22.1843 23.8629 22.3151 23.6328 22.4593C23.3699 22.624 23.22 22.7394 23.0233 22.8913C22.9002 22.9863 22.7783 23.0912 22.6343 23.2074C22.4453 23.36 22.2988 23.5391 22.1786 23.7112C22.1013 23.8219 22.0202 23.9312 21.9433 24.0355C21.8711 24.1332 21.8473 24.2514 21.8231 24.3753C21.7849 24.5695 21.8371 24.811 21.914 24.9633C21.9709 25.0762 22.1055 25.1792 22.2206 25.2874C22.3786 25.4352 22.5468 25.4835 22.7481 25.5675C22.9481 25.651 23.132 25.6597 23.3478 25.6878C23.513 25.7092 23.6599 25.6998 23.9789 25.7118C24.7438 25.7405 25.3201 25.7238 25.4492 25.7397C25.6654 25.7664 25.8187 25.7797 25.9724 25.8157C26.144 25.8559 26.2893 25.9395 26.4043 26.0235C26.5199 26.1075 26.6154 26.2193 26.697 26.3354C26.7764 26.4483 26.8936 26.5472 26.9896 26.6554C27.1527 26.8389 27.4491 27.0109 27.6079 27.1032L27.6084 27.1035C27.7324 27.1754 27.8623 27.2595 28.1214 27.3595C28.3219 27.4369 28.4671 27.4597 28.7882 27.5315C28.9755 27.5735 29.1292 27.6037 29.3403 27.6556C29.5471 27.7066 29.7238 27.7395 29.9353 27.7598C30.0652 27.7723 30.1884 27.7876 30.7291 27.7954V16.71Z" fill="#FBFAF6"/>
<path d="M30.7292 16.71C30.8014 16.7048 30.8838 16.701 30.9828 16.7C31.2232 16.5976 31.5778 16.6757 31.8093 16.6719C31.9953 16.6689 32.2216 16.7635 32.4047 16.8118C32.578 16.8577 32.8069 16.9555 33.0281 17.0476C33.184 17.1127 33.3161 17.2113 33.4694 17.3194C33.7421 17.5114 33.8529 17.6592 33.9689 17.7835C34.1069 17.9318 34.1893 18.083 34.2759 18.2036C34.349 18.305 34.4008 18.4195 34.4776 18.5195C34.5656 18.6342 34.583 18.7713 34.6454 18.9194C34.7061 19.0632 34.7461 19.2273 34.8229 19.3953C34.9011 19.5661 35.0051 19.7394 35.0773 19.8594C35.1499 19.9806 35.2255 20.147 35.2884 20.2954C35.3551 20.4531 35.4557 20.627 35.5666 20.8073C35.663 20.965 35.8014 21.1713 35.9165 21.2556C36.0316 21.3397 36.1178 21.4276 36.2618 21.5156C36.4062 21.6037 36.5778 21.6993 36.7561 21.7876C36.977 21.8972 37.1541 22.0434 37.2934 22.1157C37.4259 22.1843 37.5953 22.3151 37.8255 22.4593C38.0884 22.624 38.2383 22.7394 38.435 22.8913C38.5581 22.9863 38.68 23.0913 38.824 23.2074C39.013 23.36 39.1595 23.5391 39.2797 23.7113C39.357 23.8219 39.4381 23.9312 39.515 24.0355C39.5872 24.1332 39.611 24.2514 39.6352 24.3753C39.6734 24.5695 39.6212 24.811 39.5443 24.9633C39.4874 25.0762 39.3528 25.1792 39.2377 25.2874C39.0797 25.4353 38.9115 25.4835 38.7102 25.5675C38.5102 25.651 38.3263 25.6597 38.1105 25.6878C37.9453 25.7092 37.7984 25.6998 37.4794 25.7118C36.7145 25.7405 36.1382 25.7238 36.0091 25.7397C35.7929 25.7664 35.6396 25.7797 35.4859 25.8157C35.3143 25.8559 35.169 25.9395 35.054 26.0235C34.9384 26.1075 34.8429 26.2194 34.7613 26.3354C34.6819 26.4483 34.5647 26.5472 34.4687 26.6555C34.3056 26.8389 34.0092 27.0109 33.8504 27.1032L33.8499 27.1035C33.7259 27.1754 33.596 27.2595 33.3369 27.3595C33.1364 27.4369 32.9912 27.4597 32.6701 27.5315C32.4828 27.5735 32.3291 27.6037 32.118 27.6556C31.9112 27.7066 31.7345 27.7395 31.523 27.7598C31.3931 27.7723 31.2699 27.7876 30.7292 27.7954V16.71Z" fill="#FBFAF6"/>
<path d="M6.53047 13.3516C6.42414 13.4695 6.3769 13.635 6.40268 13.793C8.07146 24.019 11.2079 30.6738 16.8314 35.4954C22.4601 40.3214 30.5927 43.3216 42.2803 46.2085C42.479 46.2575 42.6931 46.1944 42.8292 46.0439C43.1143 45.7286 42.9437 45.2145 42.5221 45.1226C31.4495 42.7134 23.7978 39.826 18.3551 35.039C12.9099 30.2498 9.6879 23.5703 7.44828 13.6048C7.35288 13.1803 6.81718 13.0345 6.53047 13.3516Z" fill="#D9D9D9" stroke="black" stroke-width="0.2"/>
</svg>
