<svg width="207" height="216" viewBox="0 0 207 216" fill="none" xmlns="http://www.w3.org/2000/svg">
<path d="M196.729 0H10C4.47715 0 0 4.47715 0 10V205.986C0 211.509 4.47715 215.986 10 215.986H196.729C202.252 215.986 206.729 211.509 206.729 205.986V10C206.729 4.47715 202.252 0 196.729 0Z" fill="black"/>
<path d="M186.446 201.109H28.0571C28.0571 159.075 63.5137 125 107.252 125C150.99 125 186.446 159.075 186.446 201.109Z" fill="#DD6259"/>
<rect x="149.42" y="131.215" width="7.19952" height="79.1947" fill="black"/>
<path d="M105.294 116.324H112.294V207.324H105.294V116.324Z" fill="black"/>
<path d="M194.674 156.928V164.127H26V156.928H194.674Z" fill="black"/>
<rect x="60.9691" y="129.158" width="7.19952" height="81.2517" fill="black"/>
<rect x="95.0533" y="116.067" width="6.06667" height="38.8267" fill="#DCDDD6"/>
<rect x="95.0533" y="114.853" width="6.06667" height="38.8267" fill="#DCDDD6"/>
<rect x="95.0533" y="67.5333" width="6.06667" height="42.4667" fill="#DCDDD6"/>
<rect x="114.467" y="67.5333" width="6.06667" height="42.4667" fill="#DCDDD6"/>
<path d="M125.387 73.6H131.453V96.6533H125.387V73.6Z" fill="#DCDDD6"/>
<path d="M132.667 81.4866H138.733V100.9H132.667V81.4866Z" fill="#DCDDD6"/>
<path d="M125.387 73.6H131.453V96.6533H125.387V73.6Z" fill="#DCDDD6"/>
<path d="M141.16 73.6H147.227V96.6533H141.16V73.6Z" fill="#DCDDD6"/>
<path d="M141.16 73.6H147.227V96.6533H141.16V73.6Z" fill="#DCDDD6"/>
<path d="M72 73.6H78.0667V96.6533H72V73.6Z" fill="#DCDDD6"/>
<path d="M79.28 81.4866H85.3467V100.9H79.28V81.4866Z" fill="#DCDDD6"/>
<path d="M72 73.6H78.0667V96.6533H72V73.6Z" fill="#DCDDD6"/>
<path d="M87.7733 73.6H93.84V96.6533H87.7733V73.6Z" fill="#DCDDD6"/>
<path d="M87.7733 73.6H93.84V96.6533H87.7733V73.6Z" fill="#DCDDD6"/>
<rect x="114.467" y="116.067" width="6.06667" height="38.8267" fill="#DCDDD6"/>
<rect x="105.973" y="136.693" width="6.06667" height="20.6267" fill="#DCDDD6"/>
<rect x="105.973" y="89.3734" width="6.06667" height="42.4667" fill="#DCDDD6"/>
<rect x="125.387" y="28.7067" width="37.6133" height="6.06667" fill="#DCDDD6"/>
<rect x="143.587" y="38.4133" width="19.4133" height="6.06667" fill="#DCDDD6"/>
<rect x="143.587" y="19" width="19.4133" height="6.06667" fill="#DCDDD6"/>
<path d="M123.567 28.7067V34.7733C113.315 44.0195 111.951 57.0814 112.04 86.34H105.973C106.083 45.1778 110.609 34.8684 123.567 28.7067Z" fill="#DCDDD6"/>
<path d="M139.947 39.0198V45.0865C123.127 44.1526 121.202 51.1248 120.533 66.3198H114.467C114.362 42.6988 120.775 37.7954 139.947 39.0198Z" fill="#DCDDD6"/>
<path d="M141.16 19.6067L141.16 25.6733C114.313 27.2068 104.05 33.9898 101.12 65.1066L95.0533 65.1067C97.9947 30.4403 108.908 21.3959 141.16 19.6067Z" fill="#DCDDD6"/>
</svg>
