<svg width="207" height="220" viewBox="0 0 207 220" fill="none" xmlns="http://www.w3.org/2000/svg">
<rect y="3.08557" width="206.729" height="215.986" rx="10" fill="black"/>
<path d="M182.045 203.599H23.6556C23.6556 161.565 59.1122 127.49 102.85 127.49C146.588 127.49 182.045 161.565 182.045 203.599Z" fill="#DD6259"/>
<rect x="145.019" y="133.705" width="7.19952" height="79.1947" fill="black"/>
<path d="M100.793 154.275H107.993V209.815H100.793V154.275Z" fill="black"/>
<path d="M190.273 159.418V166.617H21.5985V159.418H190.273Z" fill="black"/>
<rect x="56.5676" y="131.648" width="7.19952" height="81.2517" fill="black"/>
<ellipse cx="104.718" cy="67.9849" rx="59.3627" ry="44.522" fill="#FFFFF3"/>
<path d="M156.039 12.7447L155.071 48.0604L123.285 25.9859L156.039 12.7447Z" fill="#FFFFF3"/>
<path d="M50.235 14.5585L51.2028 49.8742L82.9887 27.7997L50.235 14.5585Z" fill="#FFFFF3"/>
<path d="M104.724 103.426C123.09 99.3614 134.389 115.131 129.453 139.714C129.453 144.991 128.719 150.01 127.395 154.555H82.0421C80.7184 150.01 79.9895 145.804 79.9895 140.528C76.048 116.291 87.4022 99.9704 104.724 103.426Z" fill="#FFFFF3"/>
<path d="M63.767 132.948C70.4521 136.449 88.9675 124.425 86.6816 141.292C84.3957 158.16 36.5119 121.634 43.7114 122.663C50.9108 123.691 57.0819 129.447 63.767 132.948Z" fill="#FFFFF3"/>
<path d="M144.58 63.8861C148.235 86.7895 128.529 89.516 105.109 75.4015C80.5775 90.3825 60.369 86.9453 65.638 61.912C65.638 55.5523 84.8051 50.3966 105.109 50.3966C125.413 50.3966 144.58 57.5263 144.58 63.8861Z" fill="black"/>
<circle cx="104.393" cy="84.8515" r="3.59976" fill="black"/>
<circle cx="93.0795" cy="92.0509" r="3.59976" fill="black"/>
<circle cx="93.0795" cy="104.393" r="3.59976" fill="black"/>
<circle cx="104.393" cy="98.222" r="3.59976" fill="black"/>
<circle cx="116.735" cy="92.0509" r="3.59976" fill="black"/>
<circle cx="116.735" cy="104.393" r="3.59976" fill="black"/>
<circle cx="104.393" cy="111.593" r="3.59976" fill="black"/>
<path d="M149.371 91.5367L158.254 101.53L152.873 106.313L143.99 96.3197L149.371 91.5367Z" fill="#FFFFF3"/>
<rect x="166.485" y="85.3657" width="8.22802" height="46.2826" transform="rotate(41.591 166.485 85.3657)" fill="#FFFFF3"/>
<path d="M57.208 89.4797L48.3253 99.4732L53.7064 104.256L62.5891 94.2627L57.208 89.4797Z" fill="#FFFFF3"/>
<rect width="8.22802" height="46.2826" transform="matrix(-0.747902 0.663809 0.663809 0.747902 40.0943 83.3087)" fill="#FFFFF3"/>
<path d="M182.045 203.599H23.6556C23.6556 161.565 59.1122 127.49 102.85 127.49C146.588 127.49 182.045 161.565 182.045 203.599Z" fill="#DD6259"/>
<rect x="145.019" y="133.705" width="7.19952" height="79.1947" fill="black"/>
<path d="M100.793 154.275H107.993V209.815H100.793V154.275Z" fill="black"/>
<path d="M190.273 159.418V166.617H21.5985V159.418H190.273Z" fill="black"/>
<rect x="56.5676" y="131.648" width="7.19952" height="81.2517" fill="black"/>
<ellipse cx="104.718" cy="67.9849" rx="59.3627" ry="44.522" fill="#FFFFF3"/>
<path d="M156.039 12.7447L155.071 48.0604L123.285 25.9859L156.039 12.7447Z" fill="#FFFFF3"/>
<path d="M50.235 14.5585L51.2028 49.8742L82.9887 27.7997L50.235 14.5585Z" fill="#FFFFF3"/>
<path d="M104.724 103.426C123.09 99.3614 134.389 115.131 129.453 139.714C129.453 144.991 128.719 150.01 127.395 154.555H82.0421C80.7184 150.01 79.9895 145.804 79.9895 140.528C76.048 116.291 87.4022 99.9704 104.724 103.426Z" fill="#FFFFF3"/>
<path d="M63.767 132.948C70.4521 136.449 88.9675 124.425 86.6816 141.292C84.3957 158.16 36.5119 121.634 43.7114 122.663C50.9108 123.691 57.0819 129.447 63.767 132.948Z" fill="#FFFFF3"/>
<path d="M144.58 63.8861C148.235 86.7895 128.529 89.516 105.109 75.4015C80.5775 90.3825 60.369 86.9453 65.638 61.912C65.638 55.5523 84.8051 50.3966 105.109 50.3966C125.413 50.3966 144.58 57.5263 144.58 63.8861Z" fill="black"/>
<circle cx="104.393" cy="84.8515" r="3.59976" fill="black"/>
<circle cx="93.0795" cy="92.0509" r="3.59976" fill="black"/>
<circle cx="93.0795" cy="104.393" r="3.59976" fill="black"/>
<circle cx="104.393" cy="98.222" r="3.59976" fill="black"/>
<circle cx="116.735" cy="92.0509" r="3.59976" fill="black"/>
<circle cx="116.735" cy="104.393" r="3.59976" fill="black"/>
<circle cx="104.393" cy="111.593" r="3.59976" fill="black"/>
<path d="M149.371 91.5367L158.254 101.53L152.873 106.313L143.99 96.3197L149.371 91.5367Z" fill="#FFFFF3"/>
<rect x="166.485" y="85.3657" width="8.22802" height="46.2826" transform="rotate(41.591 166.485 85.3657)" fill="#FFFFF3"/>
<path d="M57.208 89.4797L48.3253 99.4732L53.7064 104.256L62.5891 94.2627L57.208 89.4797Z" fill="#FFFFF3"/>
<rect width="8.22802" height="46.2826" transform="matrix(-0.747902 0.663809 0.663809 0.747902 40.0943 83.3087)" fill="#FFFFF3"/>
</svg>
