<svg width="207" height="216" viewBox="0 0 207 216" fill="none" xmlns="http://www.w3.org/2000/svg">
<path d="M196.729 0H10C4.47715 0 0 4.47715 0 10V205.986C0 211.509 4.47715 215.986 10 215.986H196.729C202.252 215.986 206.729 211.509 206.729 205.986V10C206.729 4.47715 202.252 0 196.729 0Z" fill="black"/>
<rect x="74.3372" y="46" width="34.7604" height="107.757" fill="#51B6CF"/>
<path d="M96.9302 79.0227C110.122 43.1414 153.649 44.8825 169.687 53.7982C185.726 62.7139 175.915 93.6961 182.093 155.496L144.86 155.496L143.856 79.0227C132.985 61.4622 122.671 61.5462 96.9302 79.0227Z" fill="#51B6CF"/>
<path d="M95.8359 82.6062V159.518L52.918 182L10 159.518V82.6062L52.3301 76.0984L95.8359 82.6062Z" fill="black"/>
<path d="M95.8359 82.6062V159.518L52.918 182L10 159.518V82.6062L52.3301 76.0984L95.8359 82.6062Z" stroke="black"/>
<path d="M93.6065 83.9014V156.36L52.918 177.541L12.2295 156.36V83.9014L52.3604 77.7705L93.6065 83.9014Z" fill="#D9D9D9"/>
<path d="M93.6065 83.9014V156.36L52.918 177.541L12.2295 156.36V83.9014L52.3604 77.7705L93.6065 83.9014Z" stroke="black"/>
<path d="M92.4922 85.3342V154.959L53.4756 175.312L14.459 154.959V85.3342L52.9405 79.4426L92.4922 85.3342Z" fill="#D9D9D9"/>
<path d="M92.4922 85.3342V154.959L53.4756 175.312L14.459 154.959V85.3342L52.9405 79.4426L92.4922 85.3342Z" stroke="black"/>
<rect x="46.7869" y="116.229" width="13.377" height="44.5902" fill="black"/>
<circle cx="52.3607" cy="102.852" r="8.91803" fill="black"/>
<rect x="187.098" y="136.295" width="19.2445" height="34.5574" transform="rotate(47.5314 187.098 136.295)" fill="black"/>
<rect x="114.787" y="76.0984" width="23.4098" height="23.4098" fill="black"/>
<path d="M71.5564 60.2469L73.2961 58.5072L91.0646 75.7859L88.8351 78.0153L71.5564 60.2469Z" fill="black"/>
<path d="M181.36 60.4917L179.62 58.752L162.409 75.2283L164.081 77.458L181.36 60.4917Z" fill="black"/>
<path d="M91.0645 75.7858L162.409 75.2284L164.081 77.4579L88.835 78.0153L91.0645 75.7858Z" fill="black"/>
<rect x="115.902" y="77.2131" width="21.1803" height="21.1803" fill="#54B4D1"/>
<rect x="115.902" y="77.2131" width="21.1803" height="21.1803" stroke="black"/>
</svg>
