<svg width="15" height="17" viewBox="0 0 15 17" fill="none" xmlns="http://www.w3.org/2000/svg">
<path d="M7.50009 0H15.0001V11.4844C14.244 13.6665 10.174 17.0514 7.50009 16.4063V0Z" fill="#9277C9"/>
<path d="M7.50009 0H9.15527e-05V11.4844C0.756218 13.6665 4.82614 17.0514 7.50009 16.4063V0Z" fill="#6810B2"/>
<path d="M7.38902 0L9.82471 4.21875H4.95332L7.38902 0Z" fill="black"/>
<path d="M3.63913 4.92188V7.73438H1.40641L3.63913 4.92188Z" fill="black"/>
<path d="M11.139 7.96875V5.15625L13.3717 7.96875H11.139Z" fill="black"/>
<path d="M6.92033 4.21875H7.85783V11.25L8.79534 16.875H5.98283L6.92033 11.2885V4.21875Z" fill="black"/>
<rect x="2.70149" y="10.3125" width="9.375" height="0.9375" fill="black"/>
<rect x="2.70149" y="7.5" width="0.9375" height="2.8125" fill="black"/>
<rect x="11.139" y="7.5" width="0.9375" height="2.8125" fill="black"/>
</svg>
