<svg width="40" height="35" viewBox="0 0 40 35" fill="none" xmlns="http://www.w3.org/2000/svg">
<path d="M9.09768 0H29.3725L39.25 17.1254L29.3725 34.2507H9.09768L0 17.1254L9.09768 0Z" fill="#FEDD20"/>
<g clip-path="url(#clip0_342_16)">
<path d="M14.0213 13.2329H6.96809C6.43343 13.2329 6 13.6622 6 14.1918V25.9726C6 26.5022 6.43343 26.9315 6.96809 26.9315H14.0213C14.5559 26.9315 14.9894 26.5022 14.9894 25.9726V14.1918C14.9894 13.6622 14.5559 13.2329 14.0213 13.2329Z" fill="black"/>
<path d="M13.7446 15.0137H7.3829C7.001 15.0137 6.69141 15.3203 6.69141 15.6986V24.6027C6.69141 24.981 7.001 25.2876 7.3829 25.2876H13.7446C14.1265 25.2876 14.4361 24.981 14.4361 24.6027V15.6986C14.4361 15.3203 14.1265 15.0137 13.7446 15.0137Z" fill="#FEDD20"/>
<path d="M10.4948 26.3835C10.7621 26.3835 10.9788 26.1688 10.9788 25.904C10.9788 25.6392 10.7621 25.4246 10.4948 25.4246C10.2275 25.4246 10.0107 25.6392 10.0107 25.904C10.0107 26.1688 10.2275 26.3835 10.4948 26.3835Z" fill="#FEDD20"/>
<path d="M11.5319 14.0547H9.45739C9.38101 14.0547 9.31909 14.116 9.31909 14.1917V14.3287C9.31909 14.4043 9.38101 14.4656 9.45739 14.4656H11.5319C11.6082 14.4656 11.6702 14.4043 11.6702 14.3287V14.1917C11.6702 14.116 11.6082 14.0547 11.5319 14.0547Z" fill="#FEDD20"/>
<path d="M16.0267 21.4521C16.0267 21.0738 16.3363 20.7671 16.7182 20.7671H23.9787H29.9712C30.3526 20.7671 30.662 20.4613 30.6627 20.0836L30.6848 8.80242C30.6856 8.42484 30.3777 8.11787 29.9965 8.11617L10.7745 8.03056C10.3914 8.02885 10.0799 8.336 10.0799 8.71548V11.4521C10.0799 11.8304 9.77027 12.137 9.38838 12.137H9.31919C8.93728 12.137 8.6277 11.8304 8.6277 11.4521L8.62769 7.68493C8.62769 7.30665 8.93728 7 9.31917 7H31.2394C31.6214 7 31.9309 7.30665 31.9309 7.68493V20.7671V22.8219C31.9309 23.2003 31.6214 23.5068 31.2394 23.5068H16.7182C16.3363 23.5068 16.0267 23.2003 16.0267 22.8219V21.4521Z" fill="black"/>
<path d="M21.282 22.5481C21.6257 22.5481 21.9043 22.2721 21.9043 21.9316C21.9043 21.5912 21.6257 21.3152 21.282 21.3152C20.9383 21.3152 20.6597 21.5912 20.6597 21.9316C20.6597 22.2721 20.9383 22.5481 21.282 22.5481Z" fill="#FEDD20"/>
<path d="M16.9255 25.8355C16.9255 25.7599 16.9875 25.6985 17.0638 25.6985H19.2766C19.353 25.6985 19.4149 25.6372 19.4149 25.5616V24.8081C19.4149 24.7325 19.4768 24.6711 19.5532 24.6711H23.633C23.7093 24.6711 23.7713 24.7325 23.7713 24.8081V25.5616C23.7713 25.6372 23.8332 25.6985 23.9096 25.6985H26.7447C26.821 25.6985 26.883 25.7599 26.883 25.8355V26.7944C26.883 26.87 26.821 26.9314 26.7447 26.9314H17.0638C16.9875 26.9314 16.9255 26.87 16.9255 26.7944V25.8355Z" fill="black"/>
</g>
<defs>
<clipPath id="clip0_342_16">
<rect width="26" height="20" fill="white" transform="translate(6 7)"/>
</clipPath>
</defs>
</svg>
