<svg width="18" height="16" viewBox="0 0 18 16" fill="none" xmlns="http://www.w3.org/2000/svg">
<path d="M9.94019 0H11.383L17.4747 12.2929L15.7113 15.412H10.1005L9.94019 0Z" fill="#F9B834"/>
<path d="M9.13867 0H7.69589L1.60415 12.2929L3.36755 15.412H8.97836L9.13867 0Z" fill="#FD7206"/>
<path d="M2.9882 8.20805C1.97772 6.58441 0.819682 4.59198 2.46711 3.24895C4.78003 1.36339 5.13364 3.5698 6.14412 5.19344C6.39465 5.79368 6.62246 6.46856 6.80713 7.14894L3.90234 10.3604C3.60215 9.62747 3.35453 8.79666 2.9882 8.20805Z" stroke="#F37506" stroke-width="2"/>
<path d="M3.20716 8.9903C2.085 6.60512 0.729025 4.54913 2.4279 3.39744C5.07878 1.60038 4.83461 3.40147 5.90983 5.25849C6.18559 5.93696 6.73951 7.06457 6.95381 7.82714C13.8144 8.19409 12.6213 12.9002 8.44526 13.0836C4.2692 13.2671 4.86224 13.6742 3.97105 10.9462C3.97105 10.9462 3.38951 9.3779 3.20716 8.9903Z" fill="black"/>
<path d="M10.8501 9.30642L11.6516 8.20557H13.7357V9.30642H12.7738H11.812L11.6516 10.7742L10.8501 9.30642Z" fill="black"/>
<path d="M10.8501 11.508L11.6516 12.6089H13.7357V11.508H12.7738H11.812L11.6516 10.0402L10.8501 11.508Z" fill="black"/>
<path d="M1.44368 5.32081L5.27533 14.0482" stroke="#FD7206" stroke-width="0.6"/>
<path d="M1.92452 6.79718L5.45132 15.1605" stroke="#FD7206" stroke-width="0.6"/>
<path d="M3.75496 11.1651L5.63197 15.0625" stroke="#FD7206" stroke-width="0.6"/>
<rect x="8.65771" y="9.72424" width="1.60309" height="1.83476" fill="#F9B833"/>
</svg>
