<svg width="17" height="17" viewBox="0 0 17 17" fill="none" xmlns="http://www.w3.org/2000/svg">
<path d="M8.01554 16.1356C12.4424 16.1356 16.0311 12.5235 16.0311 8.0678C16.0311 3.61208 12.4424 0 8.01554 0C3.58868 0 0 3.61208 0 8.0678C0 12.5235 3.58868 16.1356 8.01554 16.1356Z" fill="black"/>
<path d="M8.01572 15.661C12.1822 15.661 15.5598 12.2614 15.5598 8.06783C15.5598 3.87421 12.1822 0.474609 8.01572 0.474609C3.84926 0.474609 0.47168 3.87421 0.47168 8.06783C0.47168 12.2614 3.84926 15.661 8.01572 15.661Z" fill="#FF8D00"/>
<path d="M1.88623 5.26048H4.99414L8.02241 2.37292V13.7628L4.99414 10.8752H1.88623V5.26048Z" fill="#323232"/>
<path d="M8.4873 5.22034H9.01553C10.8616 7.58036 10.7899 8.9814 9.01553 11.3898H8.4873C10.1804 8.73457 10.4036 7.35128 8.4873 5.22034Z" fill="#323232"/>
<path d="M9.43018 3.79663H10.2225C12.9915 7.06433 12.8841 9.00425 10.2225 12.339H9.43018C11.9698 8.66251 12.3045 6.74717 9.43018 3.79663Z" fill="#323232"/>
<path d="M10.8447 2.84741H11.7692C14.9997 7.02283 14.8743 9.50159 11.7692 13.7627H10.8447C13.8076 9.06488 14.1982 6.61754 10.8447 2.84741Z" fill="#323232"/>
</svg>
