<svg width="16" height="16" viewBox="0 0 16 16" fill="none" xmlns="http://www.w3.org/2000/svg">
<g clip-path="url(#clip0_126_2846)">
<path d="M2.145 12.9636C-0.340405 10.8364 -0.47338 7.46567 0.765549 0.215273C7.06171 0.059215 10.9044 -0.723162 12.7209 2.13521L2.145 12.9636Z" fill="#C22D9A"/>
<path d="M13.2425 2.6665C15.7279 4.79365 15.8609 8.16437 14.622 15.4148C8.32583 15.5709 4.48307 16.3532 2.66666 13.4949L13.2425 2.6665Z" fill="#C22D9A"/>
<path d="M7.91382 13.1608C10.8117 13.1608 13.161 10.8116 13.161 7.91366C13.161 5.01574 10.8117 2.6665 7.91382 2.6665C5.0159 2.6665 2.66666 5.01574 2.66666 7.91366C2.66666 10.8116 5.0159 13.1608 7.91382 13.1608Z" fill="black"/>
<path d="M7.81084 12.1321C10.1974 12.1321 12.132 10.1975 12.132 7.81093C12.132 5.42441 10.1974 3.48975 7.81084 3.48975C5.42432 3.48975 3.48966 5.42441 3.48966 7.81093C3.48966 10.1975 5.42432 12.1321 7.81084 12.1321Z" fill="#F3ABEF"/>
<path d="M7.81065 9.66231C8.83329 9.66231 9.66231 8.83329 9.66231 7.81065C9.66231 6.788 8.83329 5.95898 7.81065 5.95898C6.788 5.95898 5.95898 6.788 5.95898 7.81065C5.95898 8.83329 6.788 9.66231 7.81065 9.66231Z" fill="black"/>
</g>
<defs>
<clipPath id="clip0_126_2846">
<rect width="16" height="16" fill="white"/>
</clipPath>
</defs>
</svg>
