<svg width="19" height="11" viewBox="0 0 19 11" fill="none" xmlns="http://www.w3.org/2000/svg">
<path d="M12.5958 0.256836C13.6961 0.280795 14.6627 0.372939 15.4639 0.632812C16.2583 0.890532 16.8822 1.31073 17.3126 1.99316C17.7466 2.68153 18.001 3.66358 18.001 5.07324C18.001 6.30118 17.7492 7.19513 17.3155 7.85254C16.883 8.50813 16.2535 8.95239 15.4532 9.25391C13.8842 9.84505 11.7187 9.86732 9.25005 9.86816V0.274414C10.4472 0.26954 11.5616 0.234325 12.5958 0.256836Z" fill="#04A1CB" stroke="black" stroke-width="0.5"/>
<path d="M5.65533 0.256836C4.55503 0.280795 3.58836 0.372939 2.78716 0.632812C1.99281 0.890532 1.36889 1.31073 0.93853 1.99316C0.504501 2.68153 0.250053 3.66358 0.250053 5.07324C0.250092 6.30118 0.501907 7.19513 0.9356 7.85254C1.3681 8.50813 1.99763 8.95239 2.7979 9.25391C4.36692 9.84505 6.53236 9.86732 9.00103 9.86816V0.274414C7.8039 0.26954 6.68949 0.234325 5.65533 0.256836Z" fill="#75E0FC" stroke="black" stroke-width="0.5"/>
<path d="M12.504 2.77283C13.0465 2.77283 13.5815 3.02422 13.9835 3.42615C14.3854 3.82809 14.6368 4.3631 14.6368 4.90564C14.6368 5.44907 14.3839 5.99618 13.9805 6.41052C13.5771 6.82484 13.0432 7.0863 12.504 7.0863C11.9409 7.08627 11.1083 6.83486 10.4141 6.42615C10.0697 6.22335 9.77263 5.98886 9.56451 5.74158C9.35597 5.49369 9.25005 5.24897 9.25005 5.01794C9.25017 4.78505 9.35778 4.52776 9.56939 4.26111C9.77974 3.99611 10.079 3.74034 10.4239 3.51599C11.1212 3.06248 11.9497 2.77287 12.504 2.77283Z" fill="#7BDDFD" stroke="black" stroke-width="0.5"/>
<path d="M5.74664 2.66016C5.20411 2.66016 4.66905 2.91154 4.26714 3.31348C3.86524 3.71542 3.61383 4.25043 3.61382 4.79297C3.61382 5.3364 3.86669 5.88351 4.27007 6.29785C4.67347 6.71217 5.20744 6.97363 5.74664 6.97363C6.30966 6.9736 7.1423 6.72219 7.83648 6.31348C8.18088 6.11067 8.47797 5.87619 8.68609 5.62891C8.89462 5.38102 9.00054 5.1363 9.00054 4.90527C9.00042 4.67238 8.89282 4.41509 8.68121 4.14844C8.47086 3.88344 8.17163 3.62767 7.82671 3.40332C7.12942 2.94981 6.30086 2.6602 5.74664 2.66016Z" fill="#069FDC" stroke="black" stroke-width="0.5"/>
</svg>
